<?xml version="1.0" encoding="UTF-8" standalone="no"?>
<svg xmlns="http://www.w3.org/2000/svg" height="36" width="36" version="1.1"><path d="m18 0c-9.94 0-18 8.06-18 18 0 9.9 8.06 18 18 18 9.9 0 18-8.1 18-18 0-9.94-8.1-18-18-18zm9.44 25.5c0 1.09-0.886 1.98-1.98 1.98h-14.9c-1.09 0-1.98-0.886-1.98-1.98v-15c0-1.09 0.885-1.98 1.98-1.98h14.9c1.09 0 1.98 0.886 1.98 1.98v14.9zm-5.73-7.49c0 2.04-1.66 3.7-3.7 3.7s-3.7-1.66-3.7-3.7 1.66-3.7 3.7-3.7 3.7 1.66 3.7 3.7zm2.17-0.064c0 3.25-2.64 5.89-5.89 5.89-3.26 0-5.89-2.64-5.89-5.89 0-0.482 0.0601-0.95 0.17-1.4h-1.59v8.07c0 0.472 0.335 0.666 0.844 0.666h12.9c0.51 0 0.844-0.193 0.844-0.666v-8.07h-1.5c0.107 0.449 0.166 0.917 0.166 1.4zm0.7-7.2h-2.36c-0.375 0-0.678 0.302-0.678 0.679v2.36c0 0.375 0.303 0.677 0.678 0.677h2.36c0.375 0 0.679-0.302 0.679-0.677v-2.5c0.001-0.377-0.304-0.679-0.679-0.679z"/></svg>
