<?xml version="1.0" encoding="UTF-8" standalone="no"?>
<svg xmlns="http://www.w3.org/2000/svg" height="36" width="36" version="1.1"><path d="m18 0c-9.94 0-18 8.06-18 18 0 9.9 8.06 18 18 18 9.9 0 18-8.1 18-18 0-9.94-8.1-18-18-18zm8.46 25.3c0 0.674-0.561 1.22-1.25 1.22h-14.4c-0.694 0-1.25-0.547-1.25-1.22v-14.6c0-0.674 0.558-1.22 1.25-1.22h14.4c0.689 0 1.25 0.547 1.25 1.22v14.6zm-5.52-9.43c-1.36 0-1.97 0.75-2.31 1.27v0.0214h-0.0151c0.002-0.006 0.0101-0.0151 0.0151-0.0214v-1.09h-2.56c0.0315 0.722 0 7.69 0 7.69h2.56v-4.3c0-0.229 0.0151-0.457 0.0857-0.624 0.184-0.46 0.605-0.935 1.31-0.935 0.925 0 1.29 0.706 1.29 1.74v4.12h2.56v-4.41c0.001-2.36-1.26-3.46-2.94-3.46zm-7.54-3.53c-0.876 0-1.45 0.576-1.45 1.33 0 0.74 0.556 1.33 1.41 1.33h0.0176c0.893 0 1.45-0.591 1.45-1.33-0.0176-0.753-0.554-1.33-1.43-1.33zm-1.3 3.71h2.56v7.7h-2.56z"/></svg>
