<?xml version="1.0" encoding="UTF-8" standalone="no"?>
<svg
   xmlns:dc="http://purl.org/dc/elements/1.1/"
   xmlns:cc="http://creativecommons.org/ns#"
   xmlns:rdf="http://www.w3.org/1999/02/22-rdf-syntax-ns#"
   xmlns:svg="http://www.w3.org/2000/svg"
   xmlns="http://www.w3.org/2000/svg"
   version="1.1"
   id="svg2"
   viewBox="0 0 64.000001 64.000001"
   height="64"
   width="64">
  <defs
     id="defs4" />
  <metadata
     id="metadata7">
    <rdf:RDF>
      <cc:Work
         rdf:about="">
        <dc:format>image/svg+xml</dc:format>
        <dc:type
           rdf:resource="http://purl.org/dc/dcmitype/StillImage" />
        <dc:title></dc:title>
      </cc:Work>
    </rdf:RDF>
  </metadata>
  <g
     transform="translate(0,-988.36216)"
     id="layer1">
    <g
       transform="matrix(1.4876801,0,0,1.4876801,-22.72325,-491.52041)"
       id="text3342"
       style="font-style:normal;font-weight:normal;font-size:60px;line-height:125%;font-family:sans-serif;letter-spacing:0px;word-spacing:0px;fill:#ffffff;fill-opacity:1;stroke:none;stroke-width:1px;stroke-linecap:butt;stroke-linejoin:miter;stroke-opacity:1">
      <path
         id="path3347"
         style="font-style:normal;font-variant:normal;font-weight:normal;font-stretch:normal;font-size:60px;font-family:Calluna;-inkscape-font-specification:Calluna;fill:#ffffff"
         d="m 15.394286,1036.4886 14.46,-0.36 0.24,-1.68 -5.4,-0.54 c 0,0 0.3,-1.44 0.3,-3.24 l 0,-12.84 0.6,-0.6 22.32,0 0,13.62 c 0,2.04 -1.68,3.42 -4.32,3.72 l 0,1.92 14.46,-0.36 0.24,-1.68 -5.4,-0.54 c 0,0 0.3,-1.44 0.3,-3.24 l 0,-27.12 c 0,-4.98001 1.98,-7.20001 1.98,-7.20001 l -0.3,-0.24 c 0,0 -1.32,0.18 -6.72,0.18 l -4.68,0 0,1.5 c 4.44,0.9 4.44,1.5 4.44,4.38001 l 0,11.94 -0.6,0.6 -22.32,0 0,-11.16 c 0,-4.98001 1.98,-7.26001 1.98,-7.26001 l -0.3,-0.24 c 0,0 -1.32,0.24 -6.72,0.24 l -4.68,0 0,1.5 c 4.44,0.9 4.44,1.5 4.44,4.38001 l 0,28.5 c 0,2.16 -1.62,3.6 -4.32,3.9 l 0,1.92 z" />
    </g>
  </g>
</svg>
