<?xml version="1.0" encoding="UTF-8" standalone="no"?>
<svg xmlns="http://www.w3.org/2000/svg" height="36" width="36" version="1.1"><path d="m18 0c-9.94 0-18 8.06-18 18s8.06 18 18 18c9.07 0 16.6-6.7 17.8-15.4 0.121-0.594 0.177-1.21 0.167-1.84 0.0126-0.245 0.0201-0.493 0.0201-0.743 0-9.94-8.06-18-18-18zm8.28 14.7c0.008 0.167 0.01 0.334 0.01 0.502 0 5.14-3.91 11.1-11.1 11.1-2.2 0-4.24-0.643-5.96-1.75 0.304 0.0364 0.613 0.054 0.926 0.054 1.82 0 3.5-0.62 4.83-1.66-1.7-0.0289-3.14-1.15-3.63-2.7 0.237 0.0464 0.483 0.0716 0.733 0.0716 0.353 0 0.697-0.049 1.02-0.137-1.78-0.358-3.12-1.93-3.12-3.81v-0.049c0.525 0.289 1.12 0.466 1.76 0.486-1.04-0.699-1.73-1.89-1.73-3.24 0-0.713 0.191-1.38 0.527-1.96 1.92 2.35 4.78 3.9 8.02 4.06-0.0665-0.285-0.1-0.584-0.1-0.888 0-2.15 1.74-3.89 3.89-3.89 1.12 0 2.13 0.473 2.84 1.23 0.888-0.174 1.72-0.497 2.47-0.944-0.291 0.908-0.908 1.67-1.71 2.15 0.787-0.0904 1.54-0.301 2.23-0.61-0.524 0.78-1.18 1.46-1.94 2.01z"/></svg>
