<?xml version="1.0" encoding="UTF-8" standalone="no"?>
<svg xmlns="http://www.w3.org/2000/svg" height="36" width="36" version="1.1"><path d="m16 15.2v5.62l4.7-2.46 0.656-0.345-5.03-2.64-0.328-0.169zm2-15.2c-9.94 0-18 8.06-18 18s8.06 18 18 18 18-8.06 18-18-8.06-18-18-18zm9.84 21.9c-0.173 1.68-1.19 2.83-2.94 2.94 0 0-4.01 0.218-6.88 0.218h-0.0497c-2.87 0-6.88-0.218-6.88-0.218-1.75-0.2-2.77-1.3-2.94-3 0 0-0.219-2.16-0.219-3.93 0-1.76 0.219-3.93 0.219-3.93 0.21-1.67 1.3-2.83 2.94-2.94 0 0 4.91-0.11 6.88-0.11h0.0497c1.96 0 6.88 0.11 6.88 0.11 1.64 0.116 2.73 1.27 2.94 2.94 0 0 0.218 2.16 0.218 3.93s-0.218 3.93-0.218 3.93z"/></svg>
